<?xml version="1.0" encoding="utf-8"?>
<!-- Generator: Adobe Illustrator 26.1.0, SVG Export Plug-In . SVG Version: 6.00 Build 0)  -->
<svg version="1.1" id="Capa_1" xmlns="http://www.w3.org/2000/svg" xmlns:xlink="http://www.w3.org/1999/xlink" x="0px" y="0px"
	 viewBox="0 0 2500 754.4" style="enable-background:new 0 0 2500 754.4;" xml:space="preserve">
<style type="text/css">
	.st0{fill-rule:evenodd;clip-rule:evenodd;fill:#922B3F;}
	.st1{fill-rule:evenodd;clip-rule:evenodd;fill:#FFFFFF;}
	.st2{fill-rule:evenodd;clip-rule:evenodd;}
	.st3{display:none;fill-rule:evenodd;clip-rule:evenodd;fill:#922B3F;stroke:#FFFFFF;stroke-width:25;stroke-miterlimit:10;}
</style>
<g>
	<path class="st0" d="M1898.5,720.4c193.6,0,351.7-158,351.7-353.6s-158-353.6-351.7-353.6H466.2c-195.6,0-353.6,158-353.6,353.6
		s158,353.6,353.6,353.6H1898.5z"/>
	<path class="st1" d="M1898.5,688.8c177.8,0,322-144.2,322-322s-144.2-322-322-322H466.2c-177.8,0-322,144.2-322,322
		s144.2,322,322,322H1898.5z"/>
	<path class="st0" d="M1898.5,657.1c160,0,290.4-130.4,290.4-290.4c0-160-130.4-290.4-290.4-290.4H466.2
		c-160,0-290.4,130.4-290.4,290.4c0,160,130.4,290.4,290.4,290.4H1898.5z"/>
	<path class="st1" d="M640.1,414.1l2,112.6h132.4l17.8-320H636.1l2,144.2h-92.9l2-144.2H391.2l19.8,320h130.4l2-112.6L640.1,414.1
		L640.1,414.1z M841.6,416.1h92.9v-65.2h-92.9V416.1z M1432.3,416.1h94.8v-65.2h-94.8V416.1z M1311.8,350.9h-167.9l2-57.3h235.1
		l5.9-86.9H989.8l13.8,320h365.5l5.9-59.2h-233.1v-53.3h167.9L1311.8,350.9L1311.8,350.9z M1821.5,439.8
		c-2,31.6-35.6,29.6-59.3,29.6h-27.6v-59.3h45.4C1801.8,410.2,1823.5,414.1,1821.5,439.8L1821.5,439.8z M1785.9,287.7
		c23.7,0,49.4,9.9,47.4,31.6c0,27.7-23.7,33.6-51.4,33.6h-45.4v-65.2H1785.9L1785.9,287.7z M1882.8,206.7h-300.3l19.8,320H1863
		c79,0,98.8-37.5,104.7-67.2c5.9-27.7,7.9-71.1-49.4-77.1c45.4-9.9,67.2-37.5,67.2-88.9C1987.5,262,1969.7,206.7,1882.8,206.7
		L1882.8,206.7z"/>
	<path class="st2" d="M2320,606.4c11.3,0,22.4,2.9,33.2,8.7c10.8,5.8,19.2,14.1,25.2,25c6,10.8,9,22.1,9,33.8
		c0,11.8-3.1,23.3-8.9,33.5c-5.7,10.5-14.4,19.2-24.9,25c-10.2,5.8-21.8,8.9-33.6,8.9c-11.8,0-23.4-3.1-33.6-8.9
		c-10.5-5.8-19.2-14.4-25-25c-5.8-10.2-8.9-21.8-8.9-33.5c0-11.8,3-23,9.1-33.8c5.8-10.6,14.6-19.3,25.3-25
		C2297.6,609.3,2308.6,606.4,2320,606.4L2320,606.4z M2320,617.5c-9.5,0-18.7,2.5-27.7,7.3c-9,4.9-16,11.8-21.1,20.8
		c-5.1,9-7.6,18.4-7.6,28.2c0,9.7,2.5,19,7.5,27.9c5,8.9,11.9,15.9,20.9,20.8c8.5,4.9,18.2,7.5,28,7.5c9.8,0,19.4-2.6,28-7.5
		c8.8-4.8,16-12.1,20.8-20.8c4.8-8.5,7.4-18.1,7.4-27.9c0-9.8-2.5-19.2-7.5-28.2c-5-9-12.1-16-21-20.8
		C2338.6,620,2329.4,617.5,2320,617.5L2320,617.5z M2290.4,711.1v-72.6h24.9c8.5,0,14.7,0.7,18.5,2c3.8,1.3,6.8,3.7,9.1,7
		c5.2,7.7,4.3,17.9-2.3,24.5c-3.8,4-8.8,6.1-15.1,6.6c2.6,1.1,4.6,2.3,6.2,3.8c2.9,2.9,6.5,7.7,10.7,14.4l8.8,14.2H2337l-6.4-11.5
		c-5.1-9-9.1-14.6-12.2-16.9c-2.1-1.7-5.3-2.5-9.4-2.5h-6.9v30.8L2290.4,711.1L2290.4,711.1L2290.4,711.1z M2302.1,670.3h14.2
		c6.8,0,11.4-1,13.9-3c2.4-1.9,3.8-4.9,3.7-8.1c0-2.1-0.6-4.1-1.8-5.8c-1.2-1.7-3-3-4.9-3.8c-2.2-0.9-6.1-1.3-11.8-1.3h-13.3V670.3z
		"/>
</g>
<path class="st3" d="M1887.6,898.1H477.2c-175.1,0-317.1,138-317.1,308.1s142,308.1,317.1,308.1h1410.3
	c175.1,0,317.1-138,317.1-308.1S2062.7,898.1,1887.6,898.1z"/>
</svg>
