<?xml version="1.0" encoding="UTF-8"?><svg id="Capa_2" xmlns="http://www.w3.org/2000/svg" viewBox="0 0 491.65 410.1"><defs><style>.cls-1{fill:#f7ae1a;}.cls-2{fill:#fffbcc;}.cls-3{fill:#ed1c24;}.cls-4{fill:#fadc4e;}.cls-5{fill:#fcc812;}.cls-6{fill:#a6ce39;}.cls-7{fill:#50b848;}</style></defs><g id="IFRESH"><g><g><path class="cls-2" d="M368.21,16.77c-81.96,0-114.65,72.88-120.39,83.38-2.14,2.5-4,0-4,0-5.74-10.5-38.43-83.38-120.39-83.38-45.72,0-111.3,31.53-106.15,114.74,3.85,62.21,50.65,122.01,104.91,171.38,1.18-1.61,3.05-3.17,6.01-4.36,3.78-1.52,7.59-2.3,11.31-2.3,4.74,0,7.72,1.56,9.41,3.72,1.31-1.1,3.02-1.73,5-1.73h34.51c2.23,0,3.96,.53,5.29,1.62,1.82,1.49,2.39,3.69,2.69,5.44,.04,.24,.09,.52,.16,.89l1.19,5.88c.47-.07,.97-.1,1.49-.1h14.93c2.36,0,3.87,.94,4.79,1.85,2.13-1.72,4.61-2.62,7.21-2.62,4.06,0,7.39,2.05,9.38,5.77,.72,1.35,1.27,2.85,1.65,4.47,5.29-6.79,12.14-10.24,20.4-10.24s14.51,3.66,19.21,10.59c.29,.43,.57,.87,.84,1.32,.82-2.27,1.92-4.25,3.36-5.89,3.43-3.93,7.88-6.01,12.86-6.01,2.28,0,4.65,.57,7.21,1.75,.62-.56,1.24-.89,1.72-1.09,1.12-.47,2.49-.66,4.73-.66,1.39,0,3.19,.14,4.71,1.25,1.27,.94,1.93,2.23,2.33,3.44v-1.75c-2.26-1.05-3.65-3.21-3.65-5.83v-3.93c0-3.55,2.67-6.12,6.34-6.12h18.58c4.13,0,7.01,2.86,7.01,6.95v8.89c3.46-1.94,6.74-2.9,9.92-2.9,2.15,0,4.18,.39,6.07,1.15,58.64-51.08,111.4-114.58,115.5-180.8,5.15-83.21-60.43-114.74-106.15-114.74Z"/><g><polygon class="cls-6" points="351.21 256.72 351.21 256.72 351.21 256.72 351.21 256.72"/><g><path class="cls-4" d="M243.81,100.15c-1.22-2.24-3.68-7.33-7.58-13.95l7.64,98.38c.76-.03,1.52-.06,2.29-.06,2.08,0,4.14,.11,6.17,.3l8.09-106.64c-6.9,10.42-10.91,18.89-12.6,21.97-2.14,2.5-4,0-4,0ZM50.87,43.29L204.31,199.23c2.3-1.84,4.72-3.55,7.26-5.08L88.23,22.54c-13.14,4.29-26.13,11.09-37.36,20.76Zm.61,179.69l129.11,14.48c.68-3.14,1.57-6.21,2.67-9.17L34.39,193.14c4.86,10.11,10.61,20.07,17.08,29.85Zm257.88,6.2c1,2.81,1.82,5.7,2.44,8.67l128.21-14.66c6.69-10.09,12.62-20.39,17.59-30.84l-148.25,36.82ZM405.66,23.3l-122.26,172.55c2.36,1.58,4.61,3.32,6.75,5.19L442.44,44.77c-10.97-9.89-23.76-16.92-36.78-21.47Z"/><path class="cls-5" d="M282.33,283.32c7.05-3.87,14.32-7.52,21.81-10.93l-.03,.02h0s.01,0,.01,0c.05,.11,.11,.19,.17,.28,2.49-6.71,3.85-13.97,3.85-21.54,0-34.23-27.75-61.98-61.98-61.98s-61.98,27.75-61.98,61.98c0,5.7,.78,11.21,2.22,16.45,33.05,1.77,65.48,6.82,95.92,15.73Z"/><path class="cls-1" d="M147.73,19.05l75.42,169.53c2.68-.98,5.44-1.78,8.27-2.41L187.52,34.62c-11.27-6.98-24.46-12.61-39.78-15.57ZM17.27,131.51c.09,1.52,.23,3.04,.37,4.56l171.74,79.85c1.64-2.6,3.45-5.08,5.42-7.42L21.46,89.27c-3.56,12.28-5.18,26.31-4.19,42.24Zm63.67,129.7c6.18,7.04,9.08,10.01,9.08,10.01,9.06-1.13,59.24-4.37,69.19-4.37l20.61-5.26c-.49-3.26-.74-6.57-.75-9.87l-98.14,9.5ZM308.05,32.28l-43.53,154.82c2.72,.78,5.38,1.71,7.94,2.81L349.91,18.04c-16.11,2.28-29.99,7.49-41.87,14.24Zm163.28,61.36l-172.46,116.57c1.79,2.28,3.45,4.67,4.94,7.18l170.2-81.72c.13-1.39,.25-2.77,.33-4.16,.87-14.07-.29-26.66-3.02-37.87Zm-120.15,161.75h0c.02,.29,.05,.75,.04,1.32-.03-.43-.1-.88-.17-1.33l-37.84-4.08c0,.1,0,.19,0,.29,0,3.02-.22,6.05-.62,9.05l12.28,3.15c4.51-1.7,9.07-3.33,13.7-4.86,.16-.05,.17-.05,.17-.05h0c2.04-1.24,2.28,6.48,6.29,6.15,6.22-.81,6.28-7.39,6.16-9.4,0-.08-.02-.15-.02-.23Z"/></g><path class="cls-6" d="M426.89,241.54c-9.26,.79-21.47,1.95-29.56,3.2,0,0,0,0,0,0-3.42,.58-.72,6.61-4.57,8.66-8.23,4.24-16.89,5.12-17.34,5.2-2.95,.15-5.49-2.39-8.65-3.21h0c-1.64-.97-3.79-2.34-5.02-3.28-3.56,.92-7.1,1.89-10.6,2.91-.05,.01-.09,.03-.14,.04,.1,.58,.16,1.13,.21,1.66,0-.62-.02-1.11-.05-1.4,0-.1-.02-.2-.03-.3,0,0,.01,.12,.03,.3,.01,.1,.02,.2,.03,.3,.13,2.01,.06,8.6-6.16,9.4-4.01,.33-4.24-7.39-6.29-6.15h0s-.01,0-.17,.05c-8.06,2.67-15.93,5.6-23.6,8.77-.5,1.02-1.9,3.03-1.88,3.02-2.65,1.18-7.26,5.31-8.96,1.69,0,0-.01,0-.01,0,0,0,0,0,0,0l.03-.02c-7.49,3.41-14.76,7.06-21.81,10.93-59.88-17.53-127.38-20.22-192.32-12.1,10.21,10.95,21.04,21.52,32.18,31.66,1.18-1.6,3.05-3.17,6.01-4.36,3.78-1.52,7.59-2.3,11.31-2.3,4.74,0,7.72,1.56,9.41,3.72,1.31-1.1,3.02-1.73,5-1.73h34.51c2.23,0,3.96,.53,5.29,1.62,1.82,1.49,2.39,3.69,2.69,5.44,.04,.24,.09,.52,.16,.89l1.19,5.88c.47-.07,.97-.1,1.49-.1h14.93c2.36,0,3.87,.94,4.79,1.85,2.13-1.72,4.61-2.62,7.21-2.62,4.06,0,7.39,2.05,9.38,5.77,.72,1.35,1.27,2.85,1.65,4.47,5.29-6.79,12.14-10.24,20.4-10.24s14.51,3.66,19.21,10.59c.29,.43,.57,.87,.84,1.32,.82-2.27,1.92-4.25,3.36-5.89,3.43-3.93,7.88-6.01,12.86-6.01,2.28,0,4.65,.57,7.21,1.75,.62-.56,1.24-.89,1.72-1.09,1.12-.47,2.49-.66,4.73-.66,1.39,0,3.19,.14,4.71,1.25,1.27,.94,1.93,2.23,2.33,3.44v-1.75c-2.26-1.05-3.65-3.21-3.65-5.83v-3.93c0-3.55,2.67-6.12,6.34-6.12h18.58c4.13,0,7.01,2.86,7.01,6.95v8.89c3.46-1.94,6.74-2.9,9.92-2.9,2.15,0,4.17,.39,6.06,1.15,21.97-19.14,43.11-40.01,61.18-62.12l-.11-.12c.23-.19,.46-.39,.7-.58,2.14-2.63,4.22-5.28,6.27-7.95Z"/><g><path class="cls-7" d="M335.87,298.22c4.13,0,7.01,2.86,7.01,6.95v8.89c3.46-1.94,6.74-2.9,9.92-2.9,2.14,0,4.16,.39,6.05,1.14,.94-.82,1.89-1.63,2.83-2.46-1.84-7.46-4.52-18.52-6.55-27.63-1.53-7.76-2.98-16.86-3.96-26.9,.01,.14,.03,.35,.04,.58,0,.06,0,.12,0,.19,0,.08,0,.17,0,.25,0,.1,0,.2,0,.3,0,.08,0,.17,0,.26,0,.12,0,.24-.01,.37,0,.09-.01,.18-.02,.27,0,.14-.02,.28-.04,.42,0,.09-.02,.19-.03,.29-.02,.15-.04,.3-.07,.45-.02,.1-.04,.2-.05,.3-.03,.16-.06,.31-.1,.47-.02,.1-.05,.2-.08,.31-.04,.16-.09,.32-.14,.47-.03,.1-.07,.21-.11,.31-.06,.16-.12,.31-.18,.47-.04,.1-.09,.21-.14,.31-.07,.15-.15,.3-.24,.45-.06,.1-.11,.2-.17,.3-.09,.14-.19,.28-.29,.42-.07,.09-.14,.19-.21,.28-.11,.13-.23,.26-.35,.38-.08,.09-.16,.17-.26,.26-.13,.12-.28,.23-.43,.34-.1,.07-.19,.15-.3,.22-.16,.11-.34,.2-.52,.29-.11,.06-.21,.12-.33,.18-.21,.09-.43,.17-.66,.24-.11,.04-.21,.08-.33,.11-.35,.1-.72,.18-1.13,.23-4.01,.33-4.24-7.39-6.29-6.15,0,0-3.65,4.78-6.68,16.33,0,0-2.68,12.69-3.53,23.01h7.32Z"/><path class="cls-7" d="M258.21,311.18c7.61,.18,14.04,3.82,18.62,10.57,.29,.43,.57,.87,.84,1.32,.82-2.27,1.92-4.25,3.36-5.89,0,0,.01-.01,.02-.02,2.57-4.92,5.11-9.39,7.52-13.39,6.73-11.01,14.81-22.22,24.54-33.05,0,0-.01,0-.02,.01-1.31,.59-3.11,1.9-4.79,2.62,0,0-.02,0-.02,.01-.17,.07-.34,.14-.51,.2-.04,.01-.08,.03-.12,.05-.16,.05-.31,.09-.47,.13-.05,.01-.1,.03-.14,.04-.15,.03-.29,.05-.44,.06-.05,0-.1,.02-.15,.02-.13,0-.25,0-.37-.01-.06,0-.13,0-.19,0-.12-.02-.23-.06-.34-.09-.06-.02-.12-.02-.18-.05-.11-.05-.21-.12-.31-.18-.05-.03-.1-.05-.15-.09-.1-.08-.2-.19-.29-.3-.04-.04-.08-.07-.12-.12-.13-.17-.25-.36-.35-.59,0,0-2.09,1.3-5.63,3.79h0s-24.68,18.76-40.28,34.98Z"/><path class="cls-7" d="M146.58,293.66c10.27-1.93,20.73-3.65,31.29-5.08,28.02-3.58,58.36-5.21,80.35-4.22,6.62,.3,13.19,.77,19.65,1.47,.83-.47,2.03-1.15,2.03-1.15-9.54-1.61-21.19-2.68-34.03-3.28h-.04c-31.74-1.9-64.56-.12-91.1,2.41-5.56,.51-11,1.09-16.27,1.72-12.9,1.5-23.42,3.03-30.35,4.13,3.89,3.78,7.84,7.5,11.83,11.16,7.21-2.65,16.35-5.05,26.65-7.16Z"/><path class="cls-7" d="M234.09,303.16c8.28-2.2,16.61-4.1,24.82-5.58,0,0,6.54-4.38,11.93-7.63-22.94-.6-49.86,3.6-75.88,9.86,0,0-.36,.1-.97,.27,1.6,1.48,2.15,3.53,2.43,5.19,.04,.24,.09,.52,.16,.89l1.19,5.88c.47-.07,.97-.1,1.49-.1h6.54c3.06-1.08,6.14-2.14,9.27-3.15,5.76-1.84,12.07-3.72,19.02-5.63Z"/><path class="cls-7" d="M397.33,244.73c-3.42,.58-.72,6.61-4.57,8.66-8.23,4.24-16.89,5.12-17.34,5.2-2.95,.15-5.49-2.39-8.65-3.21,14.74,9.21,25.41,18.51,29.12,21.88,7.85-8.14,15.37-16.49,22.44-25.03-8.33-3.44-19.01-6.89-21-7.5Z"/></g><polygon class="cls-3" points="104.12 295.87 104.13 295.87 104.12 295.86 104.12 295.87"/><polygon class="cls-3" points="104.13 295.86 104.13 295.86 104.13 295.85 104.13 295.87 104.13 295.87 104.13 295.86 104.13 295.86"/><polygon class="cls-3" points="102.49 291.16 102.5 291.17 102.5 291.17 102.49 291.16"/></g><g><path class="cls-3" d="M258.23,403.15c-10.03,0-18.89-4.62-25.62-13.36-.18-.23-.35-.47-.53-.7v1.31c0,1.23,0,4.96-2.65,8.09-1.11,1.31-2.48,2.29-4.08,2.94,5.32,3.04,9.71,5.29,12.92,6.68,2.71,1.17,6.29,1.99,7.54,1.99,1.09,0,4.05-.6,5.88-1.3,2.94-1.14,7.24-3.25,12.62-6.25-1.95,.38-3.98,.6-6.09,.6Z"/><path class="cls-3" d="M365.99,.06c-74.04,1.89-118.17,78.1-118.17,78.1-1.75,2.82-4,0-4,0C243.82,78.16,199.69,1.95,125.65,.06,22.32-2.58-11.52,86.25,3.32,146.23c8.95,36.14,15.12,60.99,49.62,104.31,20.9,26.24,43.74,49.96,66.12,70.6v-2.41c0-2.21,.9-4.05,2.43-5.26-.76-1.28-1.21-2.85-1.21-4.75,0-1.49,.34-3.69,1.91-5.83C67.93,253.52,21.14,193.72,17.28,131.51,12.13,48.31,77.71,16.77,123.43,16.77c81.96,0,114.65,72.88,120.39,83.38,0,0,1.86,2.5,4,0,5.74-10.5,38.43-83.38,120.39-83.38,45.72,0,111.3,31.53,106.15,114.74-4.1,66.22-56.86,129.72-115.5,180.8,2.08,.83,4,2.11,5.73,3.84,2.27,2.27,3.75,5.02,4.47,8.19,23.5-21.38,47.63-46.19,69.63-73.81,34.51-43.32,40.68-68.17,49.62-104.31C503.17,86.25,469.32-2.58,365.99,.06Z"/></g></g><g><path class="cls-7" d="M369.59,381.44c1.83,1.76,2.82,4.17,2.82,6.92s-.27,4.41-.98,5.73c-.54,1-2.22,3.33-6.14,3.33h-14.1c-1.72,0-4.06-.58-6.19-3.04-1.1,2.02-3.27,3.04-6.48,3.04h-20.02c-2.97,0-4.64-1.25-5.51-2.29-.33-.39-.58-.8-.79-1.23-3.74,3.48-7.67,4.3-10.52,4.3-2.42,0-4.89-.64-7.35-1.9-.05,.05-.1,.1-.15,.14-1.73,1.62-4.14,1.76-6.27,1.76-1.69,0-4.14-.21-5.94-2-1.13-1.13-1.84-2.64-2.16-4.62l-.87-4.86c-.67,1.05-1.42,2.06-2.24,3.05-4.66,5.59-10.87,8.42-18.47,8.42-8.56,0-15.8-3.88-21.69-11.42-3.37-4.32-4.6-5.29-13.29-5.88,2.47,1.54,3.87,4.05,3.87,7.03v2.49c0,1.46-.17,3.34-1.48,4.89-1.79,2.12-4.51,2.12-5.53,2.12h-20.85c-2.82,0-5.07-1.3-6.24-3.41-.23-.41-2.68-4.9-3.43-8.12-.42,2.71-2.94,7.6-4.32,9.23-1.96,2.3-5.06,2.3-6.08,2.3h-25.27c-1.43,0-2.68-.22-3.76-.64-.87,.39-1.96,.64-3.34,.64h-21.76l-.35-.05c-2.3-.33-4.14-1.76-4.93-3.84-.4-1.06-.54-2.32-.54-4.83,0-4.19,1.63-6.31,3.21-7.39,0,0-8.17,.72-8.17,7.39,0,2.73,.14,4.69,.87,6.6,1.44,3.79,4.76,6.4,8.87,6.99l.7,.1h22.11c1.2,0,2.34-.14,3.41-.4,1.16,.27,2.39,.4,3.69,.4h25.27c4.26,0,7.58-1.36,9.86-4.05,.17-.21,.34-.41,.49-.62,2.17,2.88,5.64,4.67,9.71,4.67h20.85c4.01,0,7.15-1.3,9.32-3.88,2.65-3.14,2.65-6.87,2.65-8.09v-1.31c.17,.24,.35,.47,.53,.7,6.73,8.74,15.58,13.36,25.62,13.36,6.98,0,13.18-2.12,18.21-6.18,.55,1.02,1.23,1.93,2.03,2.73,3.46,3.45,7.96,3.45,9.44,3.45s4.27,0,6.92-1.24c2.28,.82,4.57,1.24,6.85,1.24,2.65,0,6.24-.53,9.95-2.68,1.93,1.25,4.29,1.91,6.87,1.91h20.02c2.87,0,5.05-.63,6.7-1.53,1.85,1,3.87,1.53,5.97,1.53h14.1c4.58,0,8.51-2.22,10.51-5.94,1.38-2.57,1.57-5.4,1.57-8.08,0-5.64-7.78-6.92-7.78-6.92Z"/><g><path class="cls-3" d="M124.03,322.38v-3.65c0-1.22,.74-1.83,2.21-1.83h17.64c1.25,0,1.88,.61,1.88,1.83v63.6c0,.88,.05,1.46,.16,1.71,.11,.26,.43,.5,.98,.72,1.3,.52,1.96,1.66,1.96,3.43,0,2.03-.09,3.24-.28,3.65-.18,.41-.77,.61-1.77,.61h-21.41c-.52-.07-.85-.3-.99-.69-.15-.39-.22-1.41-.22-3.07,0-1.99,.48-3.15,1.44-3.48,1.18-.41,1.77-1.14,1.77-2.21v-55.14c0-2.14-.79-3.43-2.38-3.87-.66-.18-1-.72-1-1.6Zm15.49-21.18c4.17,0,6.25,1.4,6.25,4.2,0,2.21-1.39,4.08-4.18,5.61-2.78,1.53-5.95,2.29-9.49,2.29-4.57,0-6.86-1.53-6.86-4.59,0-2.43,1.6-4.3,4.81-5.59,3.21-1.29,6.36-1.94,9.46-1.94Z"/><path class="cls-3" d="M176.32,347.54v33.57c0,1.73,1.07,2.91,3.21,3.54,1.07,.3,1.74,.64,2.02,1.02s.42,1.24,.42,2.57c0,2.07-.16,3.28-.47,3.65-.31,.37-1.08,.55-2.3,.55h-25.27c-1.4,0-2.31-.29-2.74-.86-.42-.57-.64-1.74-.64-3.51,0-1.18,.1-1.93,.3-2.24,.2-.31,.8-.69,1.8-1.13,1.36-.59,2.21-1.1,2.54-1.52,.33-.42,.5-1.06,.5-1.91v-66.81c0-.96-.19-1.7-.58-2.21-.39-.52-1.23-1.05-2.52-1.6-.92-.41-1.38-1.31-1.38-2.71,0-.15,.02-.96,.06-2.43,.22-1.55,1.11-2.32,2.65-2.32h34.51c1.03,0,1.75,.17,2.16,.5,.41,.33,.72,1.14,.94,2.43,.04,.22,.09,.54,.17,.94l2.49,12.28c.15,.77,.22,1.44,.22,1.99,0,1.18-.88,1.77-2.65,1.77-2.36,0-3.83-.44-4.42-1.33-.59-.88-1.51-3.08-2.77-6.58-.77-2.14-1.54-3.58-2.3-4.31-.76-.74-1.93-1.11-3.51-1.11-.44,0-1.25,.05-2.43,.17v31.58h2.82c1.47,0,2.5-.34,3.07-1.02,.57-.68,.99-1.85,1.24-3.51,.33-1.88,.64-3.09,.94-3.62,.29-.53,1.51-.8,3.65-.8,1.47,0,2.37,.15,2.68,.44,.31,.3,.47,.87,.47,1.72v20.02c0,.85-.15,1.4-.44,1.66-.3,.26-1.24,.39-2.82,.39-1.92,0-3.12-.31-3.62-.94-.5-.63-.88-2.16-1.13-4.59-.3-2.47-1.64-3.71-4.04-3.71h-2.82Z"/><path class="cls-3" d="M216.02,331.61c.44-.88,.98-2.43,1.6-4.65,1.4-4.79,2.77-7.8,4.12-9.01,1.35-1.22,2.83-1.83,4.45-1.83,2.21,0,3.88,1.05,5.01,3.15,1.12,2.1,1.69,4.74,1.69,7.91,0,6.82-1.92,10.23-5.75,10.23-1.92,0-3.39-1.12-4.42-3.37-.63-1.29-1.27-1.94-1.94-1.94-1.66,0-2.49,1.83-2.49,5.48v44.19c0,1.4,.64,2.43,1.94,3.1,1.29,.63,1.94,1.64,1.94,3.04v2.49c0,.88-.1,1.45-.3,1.69-.2,.24-.78,.36-1.74,.36h-20.85c-1.44,0-2.16-.68-2.16-2.05v-3.04c0-1.03,.31-1.71,.94-2.05,1.25-.63,1.88-1.59,1.88-2.88v-55.69c0-1.25-.44-2.16-1.33-2.71-.96-.55-1.51-.99-1.66-1.3-.15-.31-.22-1.26-.22-2.85,0-1.33,.19-2.16,.58-2.49,.39-.33,1.04-.5,1.96-.5h14.93c.7,0,1.18,.19,1.44,.58,.26,.39,.39,1.32,.39,2.79v11.34Z"/><path class="cls-3" d="M253.58,353.57v22.62c0,2.99,.58,5.33,1.74,7.02,1.16,1.7,2.65,2.54,4.45,2.54,2.8,0,5.04-1.19,6.72-3.57,1.68-2.38,2.57-5.63,2.68-9.76,.04-2.21,.25-3.54,.64-3.98,.39-.44,1.72-.66,4.01-.66,1.99,0,3.25,.2,3.79,.61,.53,.41,.8,1.42,.8,3.04,0,5.68-1.84,10.73-5.53,15.15-3.69,4.42-8.57,6.64-14.66,6.64-6.97,0-12.89-3.16-17.75-9.49-4.87-6.32-7.3-15.84-7.3-28.56s2.25-22.41,6.75-29.06c4.5-6.65,10.4-9.98,17.7-9.98,6.27,0,11.3,2.8,15.1,8.41,3.8,5.6,5.7,13.57,5.7,23.89v5.14h-24.83Zm7.47-6.91v-18.31c0-3.47-1.24-5.2-3.71-5.2s-3.76,1.73-3.76,5.2v18.31h7.47Z"/><path class="cls-3" d="M310.09,318.17l3.04,15.32c.07,.48,.11,.9,.11,1.27,0,1.03-1,1.55-2.99,1.55-1.33,0-2.29-.17-2.9-.5s-1.3-1.22-2.07-2.65c-.88-1.7-2.23-3.7-4.04-6.03s-3.43-3.48-4.87-3.48c-.55,0-1.04,.26-1.47,.77-.42,.52-.64,1.12-.64,1.82,0,1.88,2.69,7.2,8.07,15.97,4.65,7.63,7.8,13.61,9.46,17.96,1.66,4.35,2.49,9.25,2.49,14.7,0,5.78-1.25,10.29-3.76,13.51-2.51,3.22-5.46,4.83-8.85,4.83-2.14,0-4.39-.77-6.75-2.32-1.29-.85-2.16-1.27-2.6-1.27-.52,0-.81,.42-.88,1.27-.15,1-.37,1.63-.66,1.91-.3,.28-1.25,.42-2.88,.42-1.25,0-2.06-.19-2.43-.55-.37-.37-.63-1.01-.77-1.94l-2.76-15.43c-.11-.74-.17-1.2-.17-1.38,0-1.03,1.23-1.55,3.71-1.55,1.29,0,2.18,.17,2.68,.5,.5,.33,1.13,1.29,1.91,2.88,2.88,6.01,5.6,9.01,8.18,9.01,1.66,0,2.49-1,2.49-2.98,0-1.77-.62-3.96-1.85-6.58-1.24-2.61-3.64-6.91-7.22-12.88-3.76-6.34-6.48-11.64-8.16-15.91-1.68-4.27-2.52-8.57-2.52-12.88,0-5.86,1.25-10.22,3.76-13.1,2.51-2.87,5.55-4.31,9.13-4.31,1.88,0,4.02,.65,6.42,1.94,1.22,.66,2.05,1,2.49,1,.59,0,.94-.39,1.05-1.16,.15-.81,.44-1.31,.88-1.49,.44-.18,1.38-.28,2.82-.28,.92,0,1.52,.1,1.8,.3,.28,.2,.52,.78,.75,1.74Z"/><path class="cls-3" d="M337.92,323.98c5.64-5.24,10.6-7.85,14.88-7.85,3.17,0,5.94,1.18,8.3,3.54,2.36,2.36,3.54,5.48,3.54,9.35v52.76c0,1.36,.39,2.34,1.16,2.93,1.11,.85,1.66,2.07,1.66,3.65,0,1.77-.13,2.89-.39,3.37-.26,.48-.85,.72-1.77,.72h-14.1c-1.22,0-2.34-.88-3.37-2.65-1.03-1.77-1.55-3.87-1.55-6.3v-51.49c0-.96-.32-1.83-.97-2.63-.65-.79-1.41-1.19-2.3-1.19-1.4,0-3.1,.85-5.09,2.54v51.05c0,1.22,.5,2.3,1.49,3.26,1,1,1.49,1.84,1.49,2.54,0,2.54-.07,3.99-.22,4.34-.15,.35-.87,.53-2.16,.53h-20.02c-.85,0-1.42-.17-1.72-.53-.29-.35-.44-1.17-.44-2.46,0-1.59,.08-2.59,.25-3.01s.62-.91,1.36-1.47c1.07-.77,1.6-1.84,1.6-3.21v-67.86c0-2.47-.79-3.85-2.38-4.15-.85-.18-1.27-.68-1.27-1.49v-3.93c0-.77,.46-1.16,1.38-1.16h18.58c1.36,0,2.05,.66,2.05,1.99v18.8Z"/></g></g></g></g></svg>